<?xml version="1.0" encoding="UTF-8" standalone="no"?><!DOCTYPE svg PUBLIC "-//W3C//DTD SVG 1.1//EN" "http://www.w3.org/Graphics/SVG/1.1/DTD/svg11.dtd"><svg width="100%" height="100%" viewBox="0 0 3334 3334" version="1.1" xmlns="http://www.w3.org/2000/svg" xmlns:xlink="http://www.w3.org/1999/xlink" xml:space="preserve" xmlns:serif="http://www.serif.com/" style="fill-rule:evenodd;clip-rule:evenodd;stroke-linejoin:round;stroke-miterlimit:1.41421;"><rect id="Artboard1" x="0" y="0" width="3333.33" height="3333.33" style="fill:none;"/><clipPath id="_clip1"><rect id="Artboard11" serif:id="Artboard1" x="0" y="0" width="3333.33" height="3333.33"/></clipPath><g clip-path="url(#_clip1)"><clipPath id="_clip2"><rect id="money" x="269.792" y="269.792" width="2793.75" height="2793.75"/></clipPath><g clip-path="url(#_clip2)"><path d="M2936.55,2047.63l-2539.77,0c-69.844,0 -126.99,-57.147 -126.99,-126.991l0,-1396.88c0,-69.843 57.146,-126.99 126.99,-126.99l2539.78,0c69.844,0 126.99,57.147 126.99,126.99l0,1396.88c-0.005,69.844 -57.152,126.991 -126.995,126.991Z" style="fill:#0e9347;fill-rule:nonzero;"/><path d="M2619.08,1539.68c-146.039,0 -279.375,69.843 -355.57,184.131c-63.493,-31.741 -133.336,-57.141 -215.877,-57.141c-222.229,0 -406.366,165.087 -438.112,380.965l1327.03,0c63.492,0 114.287,-44.444 126.99,-107.942c-25.401,-222.228 -215.883,-400.013 -444.463,-400.013Z" style="fill:#0d8944;fill-rule:nonzero;"/><path d="M2682.58,1920.64l-2031.82,0c0,-139.687 -114.288,-253.974 -253.975,-253.974l0,-888.92c139.687,0 253.975,-114.288 253.975,-253.975l2031.82,0c0,139.687 114.287,253.975 253.975,253.975l0,888.92c-139.688,0 -253.975,114.287 -253.975,253.974Z" style="fill:#3bb54a;fill-rule:nonzero;"/><g><path d="M2619.08,1539.68c-146.039,0 -279.375,69.843 -355.57,184.131c-63.493,-31.741 -133.336,-57.141 -215.877,-57.141c-177.785,0 -330.17,101.59 -400.014,253.974l1034.96,0c0,-139.687 107.941,-247.628 247.629,-253.974c-82.547,-76.195 -190.483,-126.99 -311.127,-126.99Z" style="fill:#0e9347;fill-rule:nonzero;"/><ellipse cx="1666.67" cy="1222.2" rx="507.955" ry="571.447" style="fill:#0e9347;"/><circle cx="904.737" cy="1222.2" r="126.99" style="fill:#0e9347;"/><circle cx="2428.6" cy="1222.2" r="126.99" style="fill:#0e9347;"/></g><path d="M1730.16,1158.71l-126.99,0c-38.098,0 -63.492,-25.401 -63.492,-63.493c0,-38.097 25.4,-63.492 63.492,-63.492l190.482,0c38.098,0 63.493,-25.4 63.493,-63.492c0,-38.098 -25.401,-63.493 -63.493,-63.493l-63.492,0c0,-38.097 -25.4,-63.492 -63.492,-63.492c-38.098,0 -63.493,25.4 -63.493,63.492c-107.941,0 -190.482,82.541 -190.482,190.483c0,107.941 82.541,190.482 190.482,190.482l126.99,0c38.098,0 63.493,25.4 63.493,63.493c0,38.097 -25.4,63.492 -63.493,63.492l-190.482,0c-38.098,0 -63.492,25.4 -63.492,63.492c0,38.098 25.4,63.493 63.492,63.493l63.492,0c0,38.097 25.401,63.492 63.493,63.492c38.097,0 63.492,-25.4 63.492,-63.492c107.941,0 190.482,-82.542 190.482,-190.483c0,-107.941 -82.541,-190.482 -190.482,-190.482Z" style="fill:#89c763;fill-rule:nonzero;"/><circle cx="1920.64" cy="2111.13" r="444.463" style="fill:#ffca5d;"/><circle cx="2492.09" cy="1984.14" r="444.463" style="fill:#f6b545;"/><path d="M2492.09,1539.68c-247.629,0 -444.462,196.833 -444.462,444.462c0,247.629 196.833,444.463 444.462,444.463c247.629,0 444.463,-196.834 444.463,-444.463c0,-247.629 -196.834,-444.462 -444.463,-444.462Zm0,761.935c-177.785,0 -317.472,-139.688 -317.472,-317.473c0,-177.785 139.687,-317.472 317.472,-317.472c177.785,0 317.473,139.687 317.473,317.472c0,177.785 -139.688,317.473 -317.473,317.473Z" style="fill:#ffcb5b;fill-rule:nonzero;"/><path d="M2492.09,2422.25c247.629,6.351 444.463,-196.834 444.463,-438.112l-6.351,0c-31.747,0 -57.147,25.4 -63.493,57.147c-12.697,88.892 -57.146,171.433 -120.638,228.58c-50.795,50.795 -120.639,82.541 -196.834,95.238c-31.752,0 -57.147,25.4 -57.147,57.147Z" style="fill:#f6b545;fill-rule:nonzero;"/><path d="M2492.09,1546.03c-247.629,-6.351 -444.462,196.834 -444.462,438.111l6.351,0c31.746,0 57.146,-25.4 63.492,-57.146c12.698,-88.893 57.147,-171.434 120.639,-228.58c50.795,-50.795 120.639,-82.541 196.834,-95.244c31.746,0.005 57.146,-25.395 57.146,-57.141Z" style="fill:#ffe27a;fill-rule:nonzero;"/><path d="M2219.07,2028.58c0,-177.785 139.688,-317.473 317.473,-317.473c76.195,0 146.039,25.4 203.18,76.195c-63.493,-76.195 -146.034,-120.638 -247.624,-120.638c-177.785,0 -317.472,139.687 -317.472,317.472c0,101.59 44.443,184.131 114.287,241.278c-44.444,-50.795 -69.844,-120.639 -69.844,-196.834Z" style="fill:#f19920;fill-rule:nonzero;"/><path d="M2682.58,2180.97c-6.352,0 -12.698,0 -19.049,-6.351c-12.697,-12.698 -12.697,-31.746 0,-44.444c38.098,-38.097 57.146,-95.244 57.146,-146.039c0,-19.049 12.698,-31.746 31.746,-31.746c19.049,0 31.747,12.697 31.747,31.746c0,69.844 -25.401,139.688 -69.844,190.483c-12.697,6.351 -25.4,6.351 -31.746,6.351Z" style="fill:#ffcb5b;fill-rule:nonzero;"/><g><path d="M2492.09,2174.62c-38.097,0 -63.492,-25.4 -63.492,-63.493l0,-253.974c0,-38.098 25.4,-63.493 63.492,-63.493c38.092,0 63.493,25.4 63.493,63.493l0,253.974c0,38.093 -25.395,63.493 -63.493,63.493Z" style="fill:#f19920;fill-rule:nonzero;"/><path d="M2727.02,2358.75c-44.443,-158.737 -158.736,-285.727 -304.775,-342.868c-25.4,-146.038 -120.639,-273.023 -241.277,-349.218c-76.195,82.541 -126.99,190.482 -126.99,311.121c0,247.629 196.833,444.463 444.462,444.463c82.547,6.346 158.737,-19.049 228.58,-63.498Z" style="fill:#f19920;fill-rule:nonzero;"/></g><g><path d="M2288.91,2225.42c-44.444,-57.147 -76.195,-126.99 -76.195,-203.18c0,-88.893 38.097,-171.434 101.59,-228.58c-12.698,-19.049 -25.4,-31.746 -38.098,-44.444c-63.492,57.147 -101.59,139.688 -101.59,234.932c0.006,101.584 44.449,184.125 114.293,241.272Z" style="fill:#e78825;fill-rule:nonzero;"/><path d="M2428.6,2022.24l0,88.892c0,38.098 25.4,63.493 63.492,63.493c38.092,0 63.492,-25.4 63.492,-63.493l0,-12.697c-38.092,-31.752 -82.536,-57.146 -126.984,-76.195Z" style="fill:#e78825;fill-rule:nonzero;"/></g><path d="M2727.02,2358.75c-12.697,-44.444 -25.4,-82.541 -50.795,-120.639c-50.795,38.098 -114.287,63.492 -184.131,63.492c-177.785,0 -317.472,-139.687 -317.472,-317.472c0,-95.244 38.097,-177.785 101.59,-234.932c-31.747,-31.746 -63.493,-57.146 -101.59,-76.195c-76.195,82.541 -126.99,190.483 -126.99,311.121c0,247.629 196.833,444.463 444.462,444.463c88.893,0.006 165.083,-25.389 234.926,-69.838Z" style="fill:#f6b545;fill-rule:nonzero;"/><path d="M2707.97,2301.61c-44.444,31.746 -101.59,50.795 -158.737,63.492c-31.746,6.352 -57.146,31.746 -57.146,63.493c88.892,0 165.088,-25.401 234.931,-69.844c-6.346,-19.049 -12.697,-38.092 -19.048,-57.141Z" style="fill:#f19920;fill-rule:nonzero;"/><path d="M2174.62,1673.02c-76.195,82.541 -126.99,190.483 -126.99,311.121l6.351,0c31.746,0 57.146,-25.4 63.492,-57.146c12.698,-88.893 57.147,-165.088 114.288,-222.229c-19.044,-6.351 -38.093,-19.049 -57.141,-31.746Z" style="fill:#ffcb5b;fill-rule:nonzero;"/><circle cx="1920.64" cy="2111.13" r="444.463" style="fill:#f6b545;"/><path d="M1857.15,2428.6c0,44.443 6.352,82.541 19.049,126.99c12.697,0 31.746,0 44.443,0c247.629,0 444.463,-196.834 444.463,-444.463c0,-44.444 -6.351,-82.541 -19.049,-126.99c-12.697,0 -31.746,0 -44.443,0c-247.629,0.005 -444.463,196.839 -444.463,444.463Z" style="fill:#f19920;fill-rule:nonzero;"/><path d="M1920.64,1666.67c-247.628,0 -444.462,196.834 -444.462,444.462c0,247.629 196.834,444.463 444.462,444.463c247.629,0 444.463,-196.839 444.463,-444.463c0,-247.623 -196.834,-444.462 -444.463,-444.462Zm0,761.93c-177.785,0 -317.472,-139.688 -317.472,-317.473c0,-177.785 139.687,-317.473 317.472,-317.473c177.786,0 317.473,139.688 317.473,317.473c0,177.785 -139.687,317.473 -317.473,317.473Z" style="fill:#ffcb5b;fill-rule:nonzero;"/><path d="M1920.64,2549.24c247.629,6.352 444.463,-196.828 444.463,-438.106l-6.351,0c-31.746,0 -57.147,25.401 -63.493,57.147c-12.697,88.892 -57.146,171.433 -120.638,228.58c-50.795,50.795 -120.639,82.541 -196.834,95.244c-31.746,-0.006 -57.147,25.389 -57.147,57.135Z" style="fill:#f6b545;fill-rule:nonzero;"/><path d="M1920.64,1673.02c-247.628,-6.351 -444.462,196.834 -444.462,438.111l6.351,0c31.746,0 57.147,-25.4 63.493,-57.146c12.697,-88.893 57.146,-171.434 120.638,-228.58c50.795,-50.795 120.639,-82.541 196.834,-95.244c31.752,0 57.146,-25.395 57.146,-57.141Z" style="fill:#ffe27a;fill-rule:nonzero;"/><path d="M1647.62,2155.57c0,-177.785 139.687,-317.473 317.472,-317.473c76.196,0 146.039,25.401 203.18,76.195c-63.492,-76.195 -146.039,-120.638 -247.629,-120.638c-177.785,0 -317.472,139.687 -317.472,317.472c0,101.59 44.443,184.131 114.287,241.278c-44.438,-50.795 -69.838,-120.639 -69.838,-196.834Z" style="fill:#f19920;fill-rule:nonzero;"/><path d="M2111.13,2307.96c-6.351,0 -12.697,0 -19.048,-6.352c-12.698,-12.697 -12.698,-31.746 0,-44.443c38.097,-38.098 57.146,-95.244 57.146,-146.039c0,-19.049 12.697,-31.746 31.746,-31.746c19.049,0 31.746,12.697 31.746,31.746c0,69.844 -25.4,139.687 -69.843,190.482c-12.703,6.352 -25.401,6.352 -31.747,6.352Z" style="fill:#ffcb5b;fill-rule:nonzero;"/><path d="M1920.64,2301.61c-38.097,0 -63.492,-25.4 -63.492,-63.493l0,-253.974c0,-38.098 25.4,-63.493 63.492,-63.493c38.098,0 63.493,25.401 63.493,63.493l0,253.974c0.005,38.093 -25.395,63.493 -63.493,63.493Z" style="fill:#f19920;fill-rule:nonzero;"/><g><path d="M2212.72,1990.49c12.698,38.098 25.4,76.195 25.4,120.639c0,177.785 -139.687,317.473 -317.472,317.473c-19.049,0 -44.444,0 -63.492,-6.352l0,6.352c0,44.443 6.351,82.541 19.048,126.99c12.698,0 31.747,0 44.444,0c247.629,0 444.463,-196.834 444.463,-444.463c0,-44.444 -6.352,-82.541 -19.049,-126.99c-12.698,0 -31.746,0 -44.444,0c-31.757,0.005 -57.152,0.005 -88.898,6.351Z" style="fill:#f6b545;fill-rule:nonzero;"/><circle cx="2238.11" cy="2492.09" r="444.463" style="fill:#f6b545;"/></g><path d="M2238.11,2047.63c-247.629,0 -444.463,196.833 -444.463,444.462c0,247.629 196.834,444.463 444.463,444.463c247.629,0 444.463,-196.834 444.463,-444.463c0,-247.629 -196.834,-444.462 -444.463,-444.462Zm0,761.935c-177.785,0 -317.473,-139.688 -317.473,-317.473c0,-177.785 139.688,-317.472 317.473,-317.472c177.785,0 317.473,139.687 317.473,317.472c0,177.785 -139.688,317.473 -317.473,317.473Z" style="fill:#ffcb5b;fill-rule:nonzero;"/><path d="M2238.11,2930.21c247.629,6.351 444.463,-196.834 444.463,-438.112l-6.352,0c-31.746,0 -57.146,25.4 -63.492,57.147c-12.697,88.892 -57.146,171.433 -120.639,228.58c-50.795,50.795 -120.638,82.541 -196.834,95.244c-31.746,-0.006 -57.146,25.389 -57.146,57.141Z" style="fill:#f6b545;fill-rule:nonzero;"/><path d="M2238.11,2053.98c-247.629,-6.351 -444.463,196.834 -444.463,438.111l6.352,0c31.746,0 57.146,-25.4 63.492,-57.146c12.697,-88.893 57.146,-171.434 120.639,-228.58c50.795,-50.795 120.639,-82.541 196.834,-95.244c31.751,0.005 57.146,-25.395 57.146,-57.141Z" style="fill:#ffe27a;fill-rule:nonzero;"/><path d="M1965.09,2536.54c0,-177.785 139.688,-317.473 317.473,-317.473c76.195,0 146.039,25.4 203.18,76.195c-63.492,-76.195 -146.039,-120.638 -247.629,-120.638c-177.785,0 -317.473,139.687 -317.473,317.472c0,101.59 44.444,184.131 114.288,241.278c-44.444,-50.795 -69.839,-120.639 -69.839,-196.834Z" style="fill:#f19920;fill-rule:nonzero;"/><path d="M2428.6,2688.92c-6.352,0 -12.698,0 -19.049,-6.352c-12.698,-12.697 -12.698,-31.746 0,-44.443c38.097,-38.098 57.146,-95.244 57.146,-146.039c0,-19.049 12.697,-31.746 31.746,-31.746c19.049,0 31.746,12.697 31.746,31.746c0,69.844 -25.4,139.687 -69.843,190.482c-12.698,6.352 -25.395,6.352 -31.746,6.352Z" style="fill:#ffcb5b;fill-rule:nonzero;"/><path d="M2238.11,2682.58c-38.098,0 -63.492,-25.4 -63.492,-63.493l0,-253.98c0,-38.097 25.4,-63.492 63.492,-63.492c38.098,0 63.492,25.4 63.492,63.492l0,253.975c0.006,38.098 -25.394,63.498 -63.492,63.498Z" style="fill:#f19920;fill-rule:nonzero;"/></g></g></svg>